<?xml version="1.0" encoding="utf-8"?>
<!-- Generator: Adobe Illustrator 26.2.1, SVG Export Plug-In . SVG Version: 6.00 Build 0)  -->
<svg version="1.1" id="Layer_1" xmlns="http://www.w3.org/2000/svg" xmlns:xlink="http://www.w3.org/1999/xlink" x="0px" y="0px"
	 width="60px" height="60px" viewBox="0 0 60 60" style="enable-background:new 0 0 60 60;" xml:space="preserve">
<style type="text/css">
	.st0{fill:#7A8190;}
	.st1{fill:#C6CDDC;}
	.st2{fill:#FFFFFF;}
	.st3{fill:#949BAA;}
</style>
<g>
	<path class="st0" d="M30,60c16.6,0,30-13.4,30-30S46.6,0,30,0S0,13.4,0,30S13.4,60,30,60z"/>
	<path class="st1" d="M30,7.5v16.6l14.1,6.3L30,7.5z"/>
	<path class="st2" d="M30,7.5L15.9,30.4L30,24.1V7.5z"/>
	<path class="st1" d="M30,41.2v11.3L44.1,33L30,41.2z"/>
	<path class="st2" d="M30,52.5V41.2L15.9,33L30,52.5z"/>
	<path class="st3" d="M30,38.6l14.1-8.2L30,24.1V38.6z"/>
	<path class="st1" d="M15.9,30.4L30,38.6V24.1L15.9,30.4z"/>
</g>
</svg>
