<?xml version="1.0" encoding="utf-8"?>
<!-- Generator: Adobe Illustrator 26.2.1, SVG Export Plug-In . SVG Version: 6.00 Build 0)  -->
<svg version="1.1" id="Layer_1" xmlns="http://www.w3.org/2000/svg" xmlns:xlink="http://www.w3.org/1999/xlink" x="0px" y="0px"
	 width="400px" height="200px" viewBox="0 0 400 200" style="enable-background:new 0 0 400 200;" xml:space="preserve">
<style type="text/css">
	.st0{fill-rule:evenodd;clip-rule:evenodd;fill:#B4BBCA;}
	.st1{fill-rule:evenodd;clip-rule:evenodd;fill:#676E7D;}
</style>
<g>
	<path class="st0" d="M235.8,122.7c-20.5,8.7-42.7,12.9-62.8,12.9c-29.9,0-58.9-8.1-82.3-21.8c-2.1-1.2-3.5,0.9-1.9,2.4
		c21.8,19.6,50.4,31.3,82.3,31.3c22.8,0,49.2-7.1,67.3-20.6C241.4,124.8,238.8,121.5,235.8,122.7z"/>
	<path class="st0" d="M253.8,112.5c-2-2.4-19-4.6-29.5,2.8c-1.6,1.1-1.3,2.6,0.4,2.4c5.8-0.8,18.9-2.3,21.2,0.7
		c2.3,3.1-2.6,15.3-4.8,20.8c-0.7,1.6,0.8,2.3,2.3,1.1C253.2,132.1,255.8,114.9,253.8,112.5z"/>
</g>
<path class="st1" d="M225.1,63.5v-7.1c0-1.1,0.8-1.8,1.8-1.8h31.9c1,0,1.9,0.8,1.9,1.8v6c0,1-0.9,2.3-2.4,4.5l-16.5,23.5
	c6.2-0.1,12.6,0.8,18.1,3.8c1.2,0.7,1.5,1.8,1.6,2.8v7.6c0,1.1-1.1,2.3-2.3,1.7c-9.8-5.2-22.9-5.7-33.7,0.1
	c-1.1,0.6-2.3-0.6-2.3-1.7v-7.3c0-1.1,0-3.1,1.2-4.8l19.1-27.4h-16.6C226,65.3,225.1,64.5,225.1,63.5L225.1,63.5z M108.8,107.9h-9.7
	c-0.9-0.1-1.7-0.8-1.8-1.7V56.5c0-1,0.9-1.8,1.9-1.8h9c1,0,1.7,0.8,1.8,1.7v6.5h0.2c2.3-6.3,6.8-9.2,12.8-9.2c6.1,0,9.9,3,12.5,9.2
	c2.3-6.3,7.7-9.2,13.4-9.2c4.1,0,8.5,1.7,11.2,5.5c3.1,4.2,2.4,10.2,2.4,15.6v31.5c0,1-0.9,1.8-1.9,1.8h-9.6c-1-0.1-1.8-0.9-1.8-1.8
	V79.8c0-2.1,0.2-7.4-0.2-9.3c-0.8-3.3-2.9-4.3-5.7-4.3c-2.3,0-4.8,1.5-5.8,4.1s-0.9,6.7-0.9,9.6v26.4c0,1-0.9,1.8-1.9,1.8h-9.7
	c-1-0.1-1.8-0.9-1.8-1.8V79.8c0-5.5,0.9-13.8-5.9-13.8c-6.9,0-6.7,7.9-6.7,13.8v26.4C110.7,107.1,109.9,107.9,108.8,107.9
	L108.8,107.9z M288.1,53.7c14.4,0,22.2,12.3,22.2,28c0,15.2-8.6,27.3-22.2,27.3c-14.1,0-21.8-12.3-21.8-27.7
	C266.2,65.8,274,53.7,288.1,53.7L288.1,53.7z M288.1,63.9c-7.1,0-7.6,9.8-7.6,15.8s-0.1,19,7.5,19c7.5,0,7.9-10.4,7.9-16.8
	c0-4.2-0.2-9.2-1.4-13.2C293.4,65.2,291.2,63.9,288.1,63.9L288.1,63.9z M328.9,107.9h-9.7c-1-0.1-1.8-0.9-1.8-1.8V56.3
	c0.1-0.9,0.9-1.7,1.9-1.7h9c0.9,0,1.5,0.7,1.8,1.4v7.6h0.2c2.8-6.8,6.5-10,13.2-10c4.3,0,8.6,1.5,11.3,5.8c2.5,4,2.5,10.7,2.5,15.5
	v31.3c-0.1,0.9-0.9,1.5-1.9,1.5h-9.7c-0.9-0.1-1.6-0.8-1.8-1.5V79.3c0-5.5,0.7-13.4-6-13.4c-2.3,0-4.5,1.5-5.6,4
	c-1.3,3.1-1.5,6.1-1.5,9.5v26.8C330.8,107.1,329.9,107.9,328.9,107.9L328.9,107.9z M199.7,84.1c0,3.7,0.1,6.9-1.8,10.3
	c-1.5,2.8-4,4.4-6.7,4.4c-3.7,0-5.9-2.9-5.9-7c0-8.2,7.4-9.8,14.4-9.8V84.1z M209.5,107.8c-0.7,0.6-1.5,0.7-2.3,0.2
	c-3.2-2.6-3.9-4-5.6-6.5c-5.3,5.4-9.1,7-15.9,7c-8.1,0-14.5-5.1-14.5-15.1c0-7.9,4.3-13.2,10.3-15.8c5.3-2.3,12.6-2.8,18.3-3.4V73
	c0-2.3,0.2-5.1-1.2-7c-1.2-1.8-3.4-2.5-5.4-2.5c-3.7,0-7,1.9-7.8,5.8c-0.2,0.9-0.8,1.8-1.6,1.8l-9.4-1c-0.8-0.2-1.6-0.8-1.4-2
	c2.2-11.4,12.4-14.8,21.7-14.8c4.7,0,10.9,1.2,14.6,4.8c4.7,4.4,4.3,10.3,4.3,16.7v15.1c0,4.5,1.9,6.5,3.6,9c0.7,0.9,0.8,2,0,2.5
	C215,103,211.4,106.1,209.5,107.8L209.5,107.8z M72.6,84.1c0,3.7,0.1,6.9-1.8,10.3c-1.5,2.8-4,4.4-6.7,4.4c-3.7,0-5.9-2.9-5.9-7
	c0-8.2,7.4-9.8,14.4-9.8V84.1z M82.3,107.8c-0.7,0.6-1.5,0.7-2.3,0.2c-3.2-2.6-3.8-4-5.6-6.5c-5.3,5.4-9.1,7-16,7
	c-8.1,0-14.5-5.1-14.5-15.1c0-7.9,4.3-13.2,10.3-15.8c5.3-2.3,12.6-2.8,18.3-3.4V73c0-2.3,0.2-5.1-1.2-7c-1.2-1.8-3.4-2.5-5.4-2.5
	c-3.7,0-7,1.9-7.8,5.8c-0.2,0.9-0.8,1.8-1.7,1.8l-9.4-1c-0.8-0.2-1.7-0.8-1.4-2c2.2-11.4,12.4-14.8,21.7-14.8
	c4.7,0,10.9,1.2,14.6,4.8c4.7,4.4,4.3,10.3,4.3,16.7v15.1c0,4.5,1.9,6.5,3.6,9c0.7,0.9,0.8,2,0,2.5C87.8,103,84.3,106.1,82.3,107.8
	L82.3,107.8z"/>
</svg>
