<?xml version="1.0" encoding="utf-8"?>
<!-- Generator: Adobe Illustrator 26.2.1, SVG Export Plug-In . SVG Version: 6.00 Build 0)  -->
<svg version="1.1" id="Layer_1" xmlns="http://www.w3.org/2000/svg" xmlns:xlink="http://www.w3.org/1999/xlink" x="0px" y="0px"
	 width="400px" height="200px" viewBox="0 0 400 200" style="enable-background:new 0 0 400 200;" xml:space="preserve">
<style type="text/css">
	.st0{fill-rule:evenodd;clip-rule:evenodd;fill:#3B4251;}
	.st1{fill-rule:evenodd;clip-rule:evenodd;fill:#707786;}
</style>
<path class="st0" d="M149.4,96.4v-39h14.2c3,0,5,0.7,6.7,1.3c3.9,1.9,5.6,5.6,5.6,8.8c0,3.7-1.5,6.2-4.5,8.2
	c4.5,1.1,7.1,4.1,7.1,8.8c0,5.4-3.2,9.3-8.6,11c-1.9,0.7-4.1,0.9-7.3,0.9L149.4,96.4L149.4,96.4L149.4,96.4z M166.9,64.1
	c-1.1-0.4-2.2-0.7-3.7-0.7h-7.3v10.1h6.9c1.9,0,3.2-0.2,4.3-0.9c1.5-0.8,2.4-2.4,2.4-4.1C169.5,66.7,168.4,65,166.9,64.1z
	 M168.9,80.3c-0.9-0.4-2.2-0.7-4.3-0.7h-8.6v10.8h8c2.6,0,3.9-0.4,5-0.9c1.9-0.9,2.8-2.6,2.8-4.7S170.8,81.1,168.9,80.3L168.9,80.3z
	 M217.4,96.4v-39h6.7v39H217.4z M265.9,96.4v-39h6.7v39H265.9z M293.9,57.2c4.3,0,8.6,1.1,11,2.2l-0.2,6.5
	c-3.5-1.7-6.7-2.8-10.8-2.8c-3.7,0-6.9,1.1-6.9,4.1c0,8,20,4.7,20,17.9c0,7.3-6,11.9-15.1,11.9c-6,0-10.1-1.7-13.1-3.4l2.8-5.4
	c2.4,1.5,6.2,3,10.6,3c4.1,0,7.8-1.5,7.8-5c0-8.4-19.8-4.7-19.8-17.9C280.1,61.1,285.7,57.2,293.9,57.2L293.9,57.2z M338.5,96.4
	V79.6h-18.8v16.8h-6.7v-39h6.7v15.9h18.8V57.4h6.7v39H338.5z M164.1,103.1c4.1,0,7.3,0.9,10.8,2.4l-1.9,5.6
	c-1.9-0.9-4.5-1.9-8.2-1.9c-7.3,0-11.9,6.2-11.9,13.8c0,7.8,4.3,14,11.9,14c3.7,0,6.2-1.1,8.2-1.9l1.9,5.6
	c-3.4,1.5-6.7,2.4-10.8,2.4c-11.6,0-18.3-8.2-18.3-19.8C145.8,112.2,152.5,103.1,164.1,103.1L164.1,103.1z M309.8,103.1
	c4.3,0,7.5,0.9,10.8,2.4l-1.9,5.6c-1.9-0.9-4.5-1.9-8.2-1.9c-7.3,0-11.9,6.2-11.9,13.8c0,7.8,4.3,14,11.9,14c3.7,0,6.2-1.1,8.2-1.9
	l1.9,5.6c-3.2,1.5-6.5,2.4-10.8,2.4c-11.6,0-18.3-8.2-18.3-19.8C291.5,112.2,298.2,103.1,309.8,103.1L309.8,103.1z M212.8,123
	c0,11.6-7.3,20-18.3,20s-18.3-8.2-18.3-19.8s7.3-20.1,18.3-20.1C205.7,103.1,212.8,111.3,212.8,123L212.8,123z M205.9,123
	c0-8.4-4.9-13.8-11.4-13.8s-11.4,5.4-11.4,14c0,8.4,5,13.8,11.4,13.8C201,137,205.9,131.6,205.9,123z M217.4,127.7v-24.1h6.7v24.4
	c0,6.7,3.4,9.1,9.1,9.1s9.1-2.4,9.1-9.1v-24.4h6.7v24.1c0,10.6-6,15.3-15.7,15.3S217.4,138.3,217.4,127.7L217.4,127.7z M261.3,114.1
	h-0.2c0.2,1.3,0.2,3.4,0.2,5.2v23.1h-6.7v-38.8h7.3l17.9,26.5h0.2c-0.2-1.3-0.2-3.4-0.2-5.2v-21.3h6.7v38.8h-5.8L261.3,114.1z
	 M325.8,142.4v-38.8h6.7v38.8H325.8z M338.5,142.4v-38.8h6.7v32.8h15.3v6H338.5z M260.7,57.6h-31.5v6h12.5v32.8h6.7V63.7h12.3V57.6z
	 M205.5,96.4c-5.6-11.9-7.1-15.1-9.5-15.1h-6.2v15.1h-6.7V57.6h13.1c10.1,0,13.8,5.2,13.8,11c0,5.4-2.8,8.8-7.1,10.1
	c1.7,1.1,3.7,4.7,10.1,17.7H205.5L205.5,96.4z M196.7,63.5h-6.9v11.9h6.7c4.7,0,6.9-2.4,6.9-6C203.3,66.1,201.4,63.5,196.7,63.5z"/>
<path class="st1" d="M84.1,76.2c0,12.3-10.1,22.2-22.4,22.2c-12.1,0-22.2-9.9-22.2-22.2S49.6,54,61.7,54C74,54,84.1,63.9,84.1,76.2z
	 M131.6,76.2c0,12.2-9.9,22.2-22.1,22.2c0,0,0,0-0.1,0c-12.3,0-22.2-9.9-22.2-22.2S97.1,54,109.4,54C121.6,54,131.6,63.9,131.6,76.2
	C131.6,76.1,131.6,76.2,131.6,76.2z M84.1,123.8c0,12.3-10.1,22.2-22.4,22.2c-12.1,0-22.2-9.9-22.2-22.2c0-12.3,10.1-22.2,22.2-22.2
	C74,101.6,84.1,111.5,84.1,123.8z M131.6,123.8c0,12.3-9.9,22.2-22.1,22.2c0,0,0,0-0.1,0c-12.2,0-22.2-9.9-22.2-22.1c0,0,0,0,0-0.1
	c0-12.2,9.9-22.2,22.1-22.2c0,0,0,0,0.1,0C121.6,101.6,131.5,111.5,131.6,123.8C131.6,123.8,131.6,123.8,131.6,123.8z"/>
</svg>
