<?xml version="1.0" encoding="utf-8"?>
<!-- Generator: Adobe Illustrator 26.2.1, SVG Export Plug-In . SVG Version: 6.00 Build 0)  -->
<svg version="1.1" id="Layer_1" xmlns="http://www.w3.org/2000/svg" xmlns:xlink="http://www.w3.org/1999/xlink" x="0px" y="0px"
	 width="60px" height="60px" viewBox="0 0 60 60" style="enable-background:new 0 0 60 60;" xml:space="preserve">
<style type="text/css">
	.st0{fill:#808796;}
</style>
<g>
	<path class="st0" d="M30,0C13.4,0,0,13.4,0,30s13.4,30,30,30s30-13.4,30-30S46.6,0,30,0z M43.7,43.3c-0.5,0.9-1.7,1.2-2.6,0.6
		c-7.1-4.3-15.9-5.3-26.3-2.9c-1,0.2-2-0.4-2.2-1.4s0.4-2,1.4-2.2c11.4-2.6,21.2-1.5,29.1,3.3C44,41.2,44.3,42.4,43.7,43.3z
		 M47.4,35.1c-0.7,1.1-2.1,1.4-3.2,0.8c-8.1-5-20.4-6.4-29.9-3.5c-1.2,0.4-2.6-0.3-2.9-1.6c-0.4-1.2,0.3-2.5,1.6-2.9
		c10.9-3.3,24.5-1.7,33.7,4C47.8,32.5,48.1,34,47.4,35.1z M47.8,26.6c-9.7-5.7-25.6-6.3-34.9-3.5c-1.5,0.5-3.1-0.4-3.5-1.9
		c-0.4-1.5,0.4-3.1,1.9-3.5c10.6-3.2,28.2-2.6,39.4,4c1.3,0.8,1.8,2.5,1,3.8C50.8,26.9,49.1,27.4,47.8,26.6z"/>
</g>
</svg>
