<?xml version="1.0" encoding="utf-8"?>
<!-- Generator: Adobe Illustrator 26.2.1, SVG Export Plug-In . SVG Version: 6.00 Build 0)  -->
<svg version="1.1" id="Layer_1" xmlns="http://www.w3.org/2000/svg" xmlns:xlink="http://www.w3.org/1999/xlink" x="0px" y="0px"
	 width="400px" height="200px" viewBox="0 0 400 200" style="enable-background:new 0 0 400 200;" xml:space="preserve">
<style type="text/css">
	.st0{fill:#808796;}
</style>
<path class="st0" d="M94.8,54.9c-24.9,0-45.1,20.2-45.1,45.1s20.2,45.1,45.1,45.1s45.1-20.2,45.1-45.1S119.7,54.9,94.8,54.9
	L94.8,54.9z M115.5,119.9c-0.8,1.3-2.5,1.7-3.9,0.9c-10.6-6.5-23.9-7.9-39.6-4.3c-1.5,0.3-3-0.6-3.4-2.1c-0.3-1.5,0.6-3,2.1-3.4
	c17.2-3.9,31.9-2.2,43.8,5C115.9,116.9,116.3,118.6,115.5,119.9L115.5,119.9z M121,107.7c-1,1.7-3.2,2.2-4.8,1.2
	c-12.1-7.4-30.6-9.6-44.9-5.2c-1.9,0.6-3.8-0.5-4.4-2.3c-0.6-1.9,0.5-3.8,2.3-4.4c16.4-5,36.7-2.6,50.6,6
	C121.5,103.8,122,106,121,107.7L121,107.7L121,107.7z M121.5,94.9c-14.5-8.6-38.5-9.4-52.4-5.2c-2.2,0.7-4.6-0.6-5.3-2.8
	c-0.7-2.2,0.6-4.6,2.8-5.3c15.9-4.8,42.4-3.9,59.1,6c2,1.2,2.7,3.8,1.5,5.8C126.1,95.4,123.4,96.1,121.5,94.9L121.5,94.9z
	 M172.4,96.5c-7.8-1.9-9.2-3.2-9.2-5.9c0-2.6,2.4-4.3,6.1-4.3c3.5,0,7,1.3,10.6,4c0.1,0.1,0.2,0.1,0.4,0.1c0.1,0,0.3-0.1,0.3-0.2
	l3.8-5.4c0.2-0.2,0.1-0.5-0.1-0.7c-4.3-3.5-9.2-5.2-14.9-5.2c-8.4,0-14.3,5-14.3,12.3c0,7.7,5.1,10.5,13.8,12.6
	c7.4,1.7,8.7,3.2,8.7,5.7c0,2.8-2.5,4.6-6.6,4.6c-4.5,0-8.2-1.5-12.4-5.1c-0.1-0.1-0.2-0.1-0.4-0.1c-0.1,0-0.3,0.1-0.4,0.2l-4.3,5.1
	c-0.2,0.2-0.2,0.5,0.1,0.7c4.8,4.3,10.8,6.6,17.1,6.6c9.1,0,14.9-4.9,14.9-12.6C185.7,102.4,181.8,98.8,172.4,96.5L172.4,96.5
	L172.4,96.5z M206.2,88.9c-3.9,0-7.1,1.6-9.8,4.7V90c0-0.3-0.2-0.5-0.5-0.5h-7c-0.3,0-0.5,0.2-0.5,0.5v39.6c0,0.3,0.2,0.5,0.5,0.5h7
	c0.3,0,0.5-0.2,0.5-0.5v-12.5c2.7,3,5.9,4.4,9.8,4.4c7.3,0,14.7-5.6,14.7-16.3C220.9,94.5,213.5,88.9,206.2,88.9L206.2,88.9
	L206.2,88.9z M212.8,105.2c0,5.5-3.4,9.3-8.2,9.3c-4.8,0-8.4-4-8.4-9.3s3.6-9.3,8.4-9.3C209.3,95.9,212.8,99.8,212.8,105.2
	L212.8,105.2L212.8,105.2z M239.8,88.9c-9.4,0-16.8,7.2-16.8,16.5c0,9.1,7.3,16.3,16.6,16.3c9.4,0,16.8-7.2,16.8-16.4
	C256.5,96,249.1,88.9,239.8,88.9L239.8,88.9L239.8,88.9z M239.8,114.5c-5,0-8.8-4-8.8-9.3c0-5.3,3.6-9.2,8.6-9.2c5,0,8.8,4,8.8,9.3
	C248.5,110.7,244.8,114.5,239.8,114.5L239.8,114.5L239.8,114.5z M276.5,89.5h-7.7v-7.8c0-0.3-0.2-0.5-0.5-0.5h-7
	c-0.3,0-0.5,0.2-0.5,0.5v7.8h-3.4c-0.3,0-0.5,0.2-0.5,0.5v6c0,0.3,0.2,0.5,0.5,0.5h3.4V112c0,6.3,3.1,9.4,9.3,9.4
	c2.5,0,4.6-0.5,6.5-1.6c0.2-0.1,0.3-0.3,0.3-0.4v-5.7c0-0.2-0.1-0.3-0.2-0.4c-0.1-0.1-0.3-0.1-0.5,0c-1.3,0.7-2.6,1-4.1,1
	c-2.2,0-3.2-1-3.2-3.3V96.5h7.7c0.3,0,0.5-0.2,0.5-0.5v-6C277,89.7,276.8,89.5,276.5,89.5L276.5,89.5z M303.2,89.5v-1
	c0-2.8,1.1-4.1,3.5-4.1c1.5,0,2.6,0.3,3.9,0.7c0.2,0.1,0.3,0,0.5-0.1s0.2-0.2,0.2-0.4v-5.9c0-0.2-0.1-0.4-0.4-0.5
	c-1.4-0.4-3.1-0.8-5.8-0.8c-6.4,0-9.8,3.6-9.8,10.5v1.5H292c-0.3,0-0.5,0.2-0.5,0.5v6c0,0.3,0.2,0.5,0.5,0.5h3.4v23.9
	c0,0.3,0.2,0.5,0.5,0.5h7c0.3,0,0.5-0.2,0.5-0.5V96.5h6.5l10,23.9c-1.1,2.5-2.2,3-3.8,3c-1.2,0-2.5-0.4-3.8-1.1
	c-0.1-0.1-0.3-0.1-0.4,0c-0.1,0.1-0.2,0.2-0.3,0.3l-2.4,5.2c-0.1,0.2,0,0.5,0.2,0.7c2.5,1.3,4.7,1.9,7.4,1.9c5.1,0,8-2.4,10.5-8.8
	l12.1-31.2c0.1-0.2,0-0.3,0-0.5c-0.1-0.1-0.2-0.2-0.4-0.2h-7.2c-0.2,0-0.4,0.1-0.5,0.3l-7.4,21.2l-8.1-21.2
	c-0.1-0.2-0.3-0.3-0.5-0.3L303.2,89.5L303.2,89.5L303.2,89.5z M287.8,89.5h-7c-0.3,0-0.5,0.2-0.5,0.5v30.4c0,0.3,0.2,0.5,0.5,0.5h7
	c0.3,0,0.5-0.2,0.5-0.5V90C288.3,89.7,288,89.5,287.8,89.5L287.8,89.5L287.8,89.5z M284.3,75.7c-2.8,0-5,2.2-5,5c0,2.8,2.2,5,5,5
	s5-2.2,5-5C289.3,77.9,287.1,75.7,284.3,75.7L284.3,75.7L284.3,75.7z M345.4,99.3c-2.8,0-4.9-2.2-4.9-4.9s2.2-4.9,4.9-4.9
	c2.8,0,4.9,2.2,4.9,4.9S348.1,99.3,345.4,99.3L345.4,99.3z M345.4,89.9c-2.5,0-4.4,2-4.4,4.4s1.9,4.4,4.4,4.4c2.5,0,4.4-2,4.4-4.4
	C349.8,91.9,347.9,89.9,345.4,89.9L345.4,89.9L345.4,89.9z M346.5,94.8l1.4,1.9h-1.2l-1.2-1.8h-1.1v1.8h-1v-5.2h2.3
	c1.2,0,2,0.6,2,1.6C347.7,94.1,347.2,94.6,346.5,94.8L346.5,94.8L346.5,94.8z M345.6,92.5h-1.3v1.6h1.3c0.6,0,1-0.3,1-0.8
	C346.6,92.8,346.3,92.5,345.6,92.5L345.6,92.5L345.6,92.5z"/>
</svg>
